<?xml version="1.0" encoding="UTF-8"?>
<svg version="1.1" xmlns="http://www.w3.org/2000/svg" width="363" height="363">
<path d="M0 0 C119.79 0 239.58 0 363 0 C363 119.79 363 239.58 363 363 C256.41 363 149.82 363 40 363 C41.580269 359.839462 42.36808842 358.38236752 44.7081604 356.05133057 C45.25782974 355.4989119 45.80749908 354.94649323 46.37382507 354.37733459 C46.97443253 353.78391769 47.57503998 353.19050079 48.19384766 352.57910156 C49.14525887 351.62725227 49.14525887 351.62725227 50.1158905 350.65617371 C52.21057478 348.56288118 54.31225102 346.4767592 56.4140625 344.390625 C57.8689557 342.93946247 59.32340756 341.48785733 60.7774353 340.03582764 C64.60350926 336.21738582 68.43555162 332.40498851 72.26885986 328.59381104 C76.18025204 324.70288621 80.08598085 320.80628572 83.9921875 316.91015625 C91.65592027 309.26786601 99.32596905 301.63194826 107 294 C110.55502493 295.38662299 113.92658346 296.95511781 117.31396484 298.71582031 C151.08007056 316.18872818 187.23003131 319.65724644 223.70874023 308.54443359 C231.93352037 305.87374582 239.45609858 302.19199921 247 298 C248.36318359 297.26136719 248.36318359 297.26136719 249.75390625 296.5078125 C267.73346237 286.29149971 282.98661967 271.43551686 294 254 C294.58539551 253.07646729 294.58539551 253.07646729 295.18261719 252.13427734 C309.36578309 229.33948598 315.09122346 204.2951692 315.20532227 177.66772461 C315.21491852 176.23784107 315.22492958 174.80796026 315.23532104 173.37808228 C315.26218705 169.52131782 315.28329483 165.66454136 315.30332303 161.80773616 C315.32529649 157.76784413 315.35262923 153.72798833 315.37937927 149.68812561 C315.42915341 142.04922108 315.47414847 134.41029628 315.51740164 126.77135235 C315.56690518 118.06995515 315.62177437 109.36859434 315.67708123 100.66723239 C315.79066651 82.77818876 315.89755597 64.88911073 316 47 C297.43966362 47.06081953 278.87946868 47.13851699 260.31928635 47.23571491 C251.69936098 47.28047308 243.07947509 47.31993238 234.45947266 47.34643555 C226.93675517 47.36957896 219.41416475 47.40315517 211.8915484 47.44870156 C207.91701716 47.47241618 203.94261004 47.49128602 199.96800995 47.49761391 C179.12029368 47.53517033 158.5969937 47.62825072 138.6875 54.6875 C137.67969482 55.03562744 136.67188965 55.38375488 135.63354492 55.74243164 C116.89921663 62.41643292 101.2587183 73.25566548 87 87 C86.28199219 87.65484375 85.56398438 88.3096875 84.82421875 88.984375 C61.86447034 110.51776629 48.80072967 144.74754406 47.796875 175.8046875 C47.4165742 200.31964743 52.17532498 223.4330461 63.9627533 245.05921936 C65.05191673 247.09714081 66.09109451 249.1549818 67.12060547 251.22363281 C67.47444305 251.93384583 67.82828064 252.64405884 68.19284058 253.37579346 C68.45920319 253.91178162 68.7255658 254.44776978 69 255 C60.15409685 263.8690214 51.30553345 272.73537899 42.45351505 281.59829712 C38.34374238 285.71329976 34.23490971 289.82923212 30.12817383 293.94726562 C26.16870607 297.91755824 22.20683667 301.88543931 18.24325371 305.85162354 C16.72763797 307.36909425 15.21290602 308.88744819 13.69905281 310.40667725 C11.58690341 312.52603174 9.47170027 314.6422909 7.35571289 316.7578125 C6.72345795 317.39366272 6.091203 318.02951294 5.43978882 318.68463135 C1.11405216 323 1.11405216 323 0 323 C0 216.41 0 109.82 0 0 Z " fill="#FFFFFF" transform="translate(0,0)"/>
<path d="M0 0 C2.02165917 0.00560664 4.04332245 0.00987168 6.06498718 0.01286316 C11.34377623 0.02422786 16.62231119 0.05362145 21.90100098 0.0869751 C27.30440841 0.11785812 32.70785756 0.13140718 38.11132812 0.14648438 C48.6824023 0.1785004 59.25328926 0.22959347 69.82421875 0.29296875 C69.91736378 11.89876499 69.98820797 23.50447064 70.03146744 35.11056614 C70.05224168 40.50117364 70.08037131 45.89152327 70.12597656 51.28198242 C70.16979971 56.49509615 70.19343204 61.70796361 70.20372772 66.92124748 C70.2110542 68.898934 70.22535877 70.87660877 70.24713898 72.85418892 C70.40508756 87.80550311 69.18854224 101.21097458 62.01171875 114.66796875 C61.6647998 115.33586426 61.31788086 116.00375977 60.96044922 116.69189453 C58.11124961 122.03788248 54.91937711 126.81020281 50.82421875 131.29296875 C49.69886719 132.53820312 49.69886719 132.53820312 48.55078125 133.80859375 C34.33704435 148.78458152 15.19901486 157.21006069 -5.39111328 157.7668457 C-18.38567038 157.87019174 -29.13452907 156.24326131 -41.17578125 151.29296875 C-39.63621991 147.63415698 -37.43489068 145.31005085 -34.63427734 142.52441406 C-34.17556747 142.06541214 -33.7168576 141.60641022 -33.24424744 141.13349915 C-31.73393215 139.624572 -30.21666737 138.12284421 -28.69921875 136.62109375 C-27.64788955 135.57349651 -26.5970024 134.52545547 -25.54653931 133.47698975 C-22.78577109 130.72384355 -20.01904876 127.97675748 -17.2510376 125.230896 C-13.92832004 121.93227252 -10.61305569 118.62616031 -7.29653931 115.32130432 C-2.26196911 110.306103 2.78196677 105.30049979 7.82421875 100.29296875 C-4.38578125 99.96296875 -16.59578125 99.63296875 -29.17578125 99.29296875 C-29.50578125 86.75296875 -29.83578125 74.21296875 -30.17578125 61.29296875 C-46.67578125 77.79296875 -63.17578125 94.29296875 -80.17578125 111.29296875 C-82.75399264 108.71475736 -83.20012933 106.46597501 -84.23828125 102.98046875 C-84.57988281 101.84996094 -84.92148438 100.71945313 -85.2734375 99.5546875 C-91.22773354 78.03158276 -86.92081598 56.10904982 -76.18408203 37.00390625 C-73.87320651 33.08269181 -71.24077799 29.64806806 -68.17578125 26.29296875 C-67.42554687 25.4628125 -66.6753125 24.63265625 -65.90234375 23.77734375 C-47.51860771 4.40772912 -25.52741937 -0.20970609 0 0 Z " fill="#FFFFFF" transform="translate(190.17578125,102.70703125)"/>
</svg>
