<?xml version="1.0" encoding="UTF-8"?>
<!DOCTYPE svg PUBLIC "-//W3C//DTD SVG 1.1//EN" "http://www.w3.org/Graphics/SVG/1.1/DTD/svg11.dtd">
<svg xmlns="http://www.w3.org/2000/svg" version="1.1" width="363px" height="363px" style="shape-rendering:geometricPrecision; text-rendering:geometricPrecision; image-rendering:optimizeQuality; fill-rule:evenodd; clip-rule:evenodd" xmlns:xlink="http://www.w3.org/1999/xlink">
<g><path style="opacity:0.983" fill="#1b1364" d="M -0.5,-0.5 C 120.5,-0.5 241.5,-0.5 362.5,-0.5C 362.5,120.5 362.5,241.5 362.5,362.5C 254.833,362.5 147.167,362.5 39.5,362.5C 61.428,338.904 84.0947,315.904 107.5,293.5C 152.445,320.664 198.445,322.497 245.5,299C 283.266,276.662 306.099,243.828 314,200.5C 315.458,149.19 315.958,97.857 315.5,46.5C 264.143,46.0415 212.81,46.5415 161.5,48C 107.534,57.9665 71.3675,88.7998 53,140.5C 40.9511,180.737 46.1178,218.571 68.5,254C 45.632,277.035 22.632,299.868 -0.5,322.5C -0.5,214.833 -0.5,107.167 -0.5,-0.5 Z"/></g>
<g><path style="opacity:0.987" fill="#1b1364" d="M 168.5,102.5 C 198.833,102.5 229.167,102.5 259.5,102.5C 259.667,132.835 259.5,163.168 259,193.5C 252.514,225.653 233.681,246.819 202.5,257C 184.86,261.081 167.527,260.081 150.5,254C 149.044,253.577 148.544,252.744 149,251.5C 165.5,235 182,218.5 198.5,202C 185.838,201.5 173.171,201.333 160.5,201.5C 160.667,188.496 160.5,175.496 160,162.5C 143,179.5 126,196.5 109,213.5C 94.2666,172.915 104.1,139.749 138.5,114C 148.062,108.652 158.062,104.819 168.5,102.5 Z"/></g>
</svg>
